<svg width="681" height="197" viewBox="0 0 681 197" fill="none" xmlns="http://www.w3.org/2000/svg">
<path d="M638.053 57.9908H637.803V58.2408V68.6843C631.449 61.2295 622.335 56.5981 612.13 56.5981C593.006 56.5981 577.602 73.0446 577.602 93.2824C577.602 113.521 593.129 129.958 612.13 129.958C622.343 129.958 631.457 125.335 637.803 117.873V128.315V128.565H638.053H646.529H646.779V128.315V58.2408V57.9908H646.529H638.053ZM612.13 120.989C597.997 120.989 586.586 108.595 586.586 93.4129C586.586 78.2316 598.127 65.8368 612.13 65.8368C626.133 65.8368 637.681 78.2317 637.681 93.4129C637.681 108.595 626.271 120.989 612.13 120.989Z" fill="#0D0D0D" stroke="black" stroke-width="0.5"/>
<path d="M545.226 70.7267V58.2411V57.9911H544.976H536.5H536.25V58.2411V128.324V128.574H536.5H544.976H545.226V128.324V94.2923C545.226 81.7599 553.867 70.7319 565.897 67.9725C568.917 67.3408 572.189 66.9599 575.842 66.9599H576.092V66.7099V58.2324V57.9824H575.842C571.652 57.9824 567.584 58.3576 564.026 59.2518C556.489 61.1066 550.024 65.1184 545.226 70.7267Z" fill="#0D0D0D" stroke="black" stroke-width="0.5"/>
<path d="M491.482 120.989C476.192 120.989 463.911 108.577 463.911 93.4132C463.911 78.2499 476.322 65.8371 491.482 65.8371C506.642 65.8371 519.053 78.2499 519.053 93.4132C519.053 108.577 506.772 120.989 491.482 120.989ZM491.482 56.729C471.242 56.729 454.805 73.1606 454.805 93.4045C454.805 113.648 471.233 130.089 491.482 130.089C511.731 130.089 528.15 113.657 528.15 93.4045C528.15 73.1519 511.722 56.729 491.482 56.729Z" fill="#0D0D0D" stroke="black" stroke-width="0.5"/>
<path d="M418.632 42.6963V58.0001H409.266H409.016V58.2501V66.7276V66.9776H409.266H418.632V128.333V128.583H418.882H449.487H449.737V128.333V119.856V119.606H449.487H427.608V66.9776H449.487H449.737V66.7276V58.2501V58.0001H449.487H427.608V42.6963V42.4463H427.358H418.882H418.632V42.6963Z" fill="#0D0D0D" stroke="black" stroke-width="0.5"/>
<path d="M400.057 57.9824C395.867 57.9824 391.799 58.3576 388.24 59.2518C380.7 61.1056 374.245 65.1141 369.441 70.7174V58.2411V57.9911H369.191H360.715H360.465V58.2411V128.324V128.574H360.715H369.191H369.441V128.324V94.2923C369.441 81.7599 378.081 70.7319 390.112 67.9725C393.132 67.3408 396.404 66.9599 400.057 66.9599H400.307V66.7099V58.2324V57.9824H400.057Z" fill="#0D0D0D" stroke="black" stroke-width="0.5"/>
<path d="M316.448 120.868C303.266 120.868 292.179 110.86 290.059 97.8409H351.866H352.116V97.5909V93.4131C352.116 73.2968 336.067 56.8594 316.457 56.8594C296.846 56.8594 280.797 73.2968 280.797 93.4131C280.797 113.53 296.846 129.967 316.457 129.967C330.596 129.967 343.328 121.427 349.058 108.187L349.209 107.838H348.829H339.343H339.203L339.13 107.958C334.247 115.974 325.729 120.997 316.46 120.868H316.457H316.448ZM316.448 65.8282C329.63 65.8282 340.717 75.8357 342.836 88.8547H290.178C292.177 75.7023 303.271 65.8282 316.448 65.8282Z" fill="#0D0D0D" stroke="black" stroke-width="0.5"/>
<path d="M263.239 78.625L263.312 78.7445H263.452H272.937H273.32L273.166 78.3939C267.569 65.663 255.082 56.7373 240.565 56.7373C220.937 56.7373 204.906 73.1748 204.906 93.291C204.906 113.407 220.955 129.845 240.565 129.845C254.704 129.845 267.437 121.314 273.166 108.188L273.319 107.838H272.937H263.452H263.31L263.237 107.96C258.478 115.979 249.962 120.867 240.565 120.867C225.909 120.867 213.882 108.462 213.882 93.291C213.882 78.1201 225.917 65.7149 240.565 65.7149C250.088 65.7149 258.478 70.8433 263.239 78.625Z" fill="#0D0D0D" stroke="black" stroke-width="0.5"/>
<path fill-rule="evenodd" clip-rule="evenodd" d="M86.3044 1L86.2586 0.97353C86.2069 0.9435 86.1544 0.914795 86.1013 0.887443C85.8921 0.779849 85.6748 0.694665 85.4527 0.631889C85.147 0.545453 84.827 0.5 84.5006 0.5C84.4602 0.5 84.4199 0.500696 84.3798 0.50208C84.1231 0.510921 83.871 0.547822 83.6275 0.610577C83.324 0.688725 83.0287 0.808297 82.75 0.969291L82.6968 1H4.00058H1.00058V4V48.191L0.500569 48.4798V50.5V143.434C0.49981 143.476 0.499812 143.518 0.500569 143.56V145.52L2.24992 146.531L82.75 193.031L84.5006 194.042L86.2513 193.031L166.752 146.531C166.754 146.529 166.756 146.528 166.758 146.527L168.501 145.52V143.562C168.502 143.518 168.502 143.475 168.501 143.432V50.5V48.4798L168.001 48.191V4V1H165.001H86.3044ZM72.3097 7H7.00058V44.7251L72.3097 7ZM10.998 143.5L81.0006 183.936V103.064L10.998 143.5ZM88.0006 103.064V183.936L158.004 143.5L88.0006 103.064ZM162.001 44.7251L96.6915 7H162.001V44.7251ZM161.501 130.432L129.531 75.0308L161.501 56.5637V130.432ZM123.47 78.5321L155.441 133.936L91.498 97L123.47 78.5321ZM119.971 72.4692L88.0006 90.9363V17.0678L119.971 72.4692ZM126.032 68.9679L94.0608 13.5643L158.004 50.5L126.032 68.9679ZM81.0006 90.9363L49.0307 72.4692L81.0006 17.0679V90.9363ZM45.532 78.5321L77.5032 97L13.5607 133.936L45.532 78.5321ZM39.4706 75.0308L7.50057 130.432V56.5637L39.4706 75.0308ZM42.9693 68.9679L10.998 50.5L74.9405 13.5642L42.9693 68.9679Z" fill="url(#paint0_linear_110_126)"/>
<defs>
<linearGradient id="paint0_linear_110_126" x1="1.00007" y1="1" x2="191.543" y2="166.333" gradientUnits="userSpaceOnUse">
<stop stop-color="#79F2A5"/>
<stop offset="1" stop-color="#40DCFF"/>
</linearGradient>
</defs>
</svg>
