<svg width="169" height="194" viewBox="0 0 169 194" fill="none" xmlns="http://www.w3.org/2000/svg">
<path fill-rule="evenodd" clip-rule="evenodd" d="M86.3038 1L86.258 0.97353C86.2063 0.9435 86.1538 0.914795 86.1007 0.887443C85.8915 0.779849 85.6742 0.694665 85.4521 0.631889C85.1464 0.545453 84.8264 0.5 84.5 0.5C84.4596 0.5 84.4193 0.500696 84.3792 0.50208C84.1225 0.510921 83.8704 0.547822 83.6269 0.610577C83.3234 0.688725 83.0281 0.808297 82.7494 0.969291L82.6962 1H4.00003H1.00003V4V48.191L0.500015 48.4798V50.5V143.434C0.499256 143.476 0.499258 143.518 0.500015 143.56V145.52L2.24937 146.531L82.7494 193.031L84.5 194.042L86.2507 193.031L166.751 146.531C166.753 146.529 166.755 146.528 166.757 146.527L168.5 145.52V143.562C168.501 143.518 168.501 143.475 168.5 143.432V50.5V48.4798L168 48.191V4V1H165H86.3038ZM72.3091 7H7.00003V44.7251L72.3091 7ZM10.9974 143.5L81 183.936V103.064L10.9974 143.5ZM88 103.064V183.936L158.003 143.5L88 103.064ZM162 44.7251L96.6909 7H162V44.7251ZM161.5 130.432L129.53 75.0308L161.5 56.5637V130.432ZM123.469 78.5321L155.44 133.936L91.4974 97L123.469 78.5321ZM119.97 72.4692L88 90.9363V17.0678L119.97 72.4692ZM126.031 68.9679L94.0602 13.5643L158.003 50.5L126.031 68.9679ZM81 90.9363L49.0301 72.4692L81 17.0679V90.9363ZM45.5314 78.5321L77.5026 97L13.5601 133.936L45.5314 78.5321ZM39.47 75.0308L7.50002 130.432V56.5637L39.47 75.0308ZM42.9687 68.9679L10.9974 50.5L74.9399 13.5642L42.9687 68.9679Z" fill="url(#paint0_linear_2067_1950)"/>
<defs>
<linearGradient id="paint0_linear_2067_1950" x1="0.999512" y1="1" x2="191.542" y2="166.333" gradientUnits="userSpaceOnUse">
<stop stop-color="#79F2A5"/>
<stop offset="1" stop-color="#40DCFF"/>
</linearGradient>
</defs>
</svg>
