<svg width="681" height="197" viewBox="0 0 681 197" fill="none" xmlns="http://www.w3.org/2000/svg">
<path d="M638.053 57.9908H637.803V58.2408V68.6843C631.449 61.2295 622.335 56.5981 612.13 56.5981C593.006 56.5981 577.602 73.0446 577.602 93.2824C577.602 113.521 593.129 129.958 612.13 129.958C622.343 129.958 631.457 125.335 637.803 117.873V128.315V128.565H638.053H646.529H646.779V128.315V58.2408V57.9908H646.529H638.053ZM612.13 120.989C597.997 120.989 586.586 108.595 586.586 93.4129C586.586 78.2316 598.127 65.8368 612.13 65.8368C626.133 65.8368 637.681 78.2317 637.681 93.4129C637.681 108.595 626.271 120.989 612.13 120.989Z" fill="#FAFFFA" stroke="#FAFFFA" stroke-width="0.5"/>
<path d="M545.225 70.7265V58.2409V57.9909H544.975H536.499H536.249V58.2409V128.324V128.574H536.499H544.975H545.225V128.324V94.2921C545.225 81.7597 553.866 70.7317 565.896 67.9723C568.916 67.3406 572.188 66.9597 575.841 66.9597H576.091V66.7097V58.2322V57.9822H575.841C571.651 57.9822 567.583 58.3574 564.025 59.2516C556.488 61.1064 550.023 65.1182 545.225 70.7265Z" fill="#FAFFFA" stroke="#FAFFFA" stroke-width="0.5"/>
<path d="M491.483 120.989C476.193 120.989 463.912 108.577 463.912 93.4132C463.912 78.2499 476.323 65.8371 491.483 65.8371C506.643 65.8371 519.054 78.2499 519.054 93.4132C519.054 108.577 506.773 120.989 491.483 120.989ZM491.483 56.729C471.243 56.729 454.806 73.1606 454.806 93.4045C454.806 113.648 471.234 130.089 491.483 130.089C511.732 130.089 528.151 113.657 528.151 93.4045C528.151 73.1519 511.723 56.729 491.483 56.729Z" fill="#FAFFFA" stroke="#FAFFFA" stroke-width="0.5"/>
<path d="M418.631 42.6965V58.0003H409.265H409.015V58.2503V66.7278V66.9778H409.265H418.631V128.333V128.583H418.881H449.486H449.736V128.333V119.856V119.606H449.486H427.607V66.9778H449.486H449.736V66.7278V58.2503V58.0003H449.486H427.607V42.6965V42.4465H427.357H418.881H418.631V42.6965Z" fill="#FAFFFA" stroke="#FAFFFA" stroke-width="0.5"/>
<path d="M400.058 57.9822C395.868 57.9822 391.8 58.3574 388.241 59.2516C380.701 61.1054 374.246 65.1139 369.442 70.7172V58.2409V57.9909H369.192H360.716H360.466V58.2409V128.324V128.574H360.716H369.192H369.442V128.324V94.2921C369.442 81.7597 378.082 70.7317 390.113 67.9723C393.133 67.3406 396.405 66.9597 400.058 66.9597H400.308V66.7097V58.2322V57.9822H400.058Z" fill="#FAFFFA" stroke="#FAFFFA" stroke-width="0.5"/>
<path d="M316.448 120.868C303.266 120.868 292.179 110.86 290.059 97.8411H351.866H352.116V97.5911V93.4133C352.116 73.297 336.067 56.8596 316.457 56.8596C296.846 56.8596 280.797 73.297 280.797 93.4133C280.797 113.53 296.846 129.967 316.457 129.967C330.596 129.967 343.328 121.427 349.058 108.187L349.209 107.838H348.829H339.343H339.203L339.13 107.958C334.247 115.974 325.729 120.997 316.46 120.868H316.457H316.448ZM316.448 65.8284C329.63 65.8284 340.717 75.8359 342.836 88.8549H290.178C292.177 75.7025 303.271 65.8284 316.448 65.8284Z" fill="#FAFFFA" stroke="#FAFFFA" stroke-width="0.5"/>
<path d="M263.239 78.6252L263.312 78.7447H263.452H272.937H273.32L273.166 78.3941C267.569 65.6632 255.082 56.7375 240.565 56.7375C220.937 56.7375 204.906 73.175 204.906 93.2912C204.906 113.407 220.955 129.845 240.565 129.845C254.704 129.845 267.437 121.314 273.166 108.188L273.319 107.838H272.937H263.452H263.31L263.237 107.96C258.478 115.979 249.962 120.867 240.565 120.867C225.909 120.867 213.882 108.462 213.882 93.2912C213.882 78.1203 225.917 65.7151 240.565 65.7151C250.088 65.7151 258.478 70.8435 263.239 78.6252Z" fill="#FAFFFA" stroke="#FAFFFA" stroke-width="0.5"/>
<path fill-rule="evenodd" clip-rule="evenodd" d="M86.3038 1L86.258 0.97353C86.2063 0.9435 86.1538 0.914795 86.1007 0.887443C85.8915 0.779849 85.6742 0.694665 85.4521 0.631889C85.1464 0.545453 84.8264 0.5 84.5 0.5C84.4596 0.5 84.4193 0.500696 84.3792 0.50208C84.1225 0.510921 83.8704 0.547822 83.6269 0.610577C83.3234 0.688725 83.0281 0.808297 82.7494 0.969291L82.6962 1H4.00003H1.00003V4V48.191L0.500015 48.4798V50.5V143.434C0.499256 143.476 0.499258 143.518 0.500015 143.56V145.52L2.24937 146.531L82.7494 193.031L84.5 194.042L86.2507 193.031L166.751 146.531C166.753 146.529 166.755 146.528 166.757 146.527L168.5 145.52V143.562C168.501 143.518 168.501 143.475 168.5 143.432V50.5V48.4798L168 48.191V4V1H165H86.3038ZM72.3091 7H7.00003V44.7251L72.3091 7ZM10.9974 143.5L81 183.936V103.064L10.9974 143.5ZM88 103.064V183.936L158.003 143.5L88 103.064ZM162 44.7251L96.6909 7H162V44.7251ZM161.5 130.432L129.53 75.0308L161.5 56.5637V130.432ZM123.469 78.5321L155.44 133.936L91.4974 97L123.469 78.5321ZM119.97 72.4692L88 90.9363V17.0678L119.97 72.4692ZM126.031 68.9679L94.0602 13.5643L158.003 50.5L126.031 68.9679ZM81 90.9363L49.0301 72.4692L81 17.0679V90.9363ZM45.5314 78.5321L77.5026 97L13.5601 133.936L45.5314 78.5321ZM39.47 75.0308L7.50002 130.432V56.5637L39.47 75.0308ZM42.9687 68.9679L10.9974 50.5L74.9399 13.5642L42.9687 68.9679Z" fill="url(#paint0_linear_2067_1950)"/>
<defs>
<linearGradient id="paint0_linear_2067_1950" x1="0.999512" y1="1" x2="191.542" y2="166.333" gradientUnits="userSpaceOnUse">
<stop stop-color="#79F2A5"/>
<stop offset="1" stop-color="#40DCFF"/>
</linearGradient>
</defs>
</svg>
