<svg width="32" height="32" viewBox="0 0 32 32" fill="none" xmlns="http://www.w3.org/2000/svg">
<circle cx="16" cy="16" r="16" fill="#0052FF"/>
<g transform="translate(3.6 3) scale(1.6)">
<path fill-rule="evenodd" clip-rule="evenodd" d="M5.5 13v1.25c0 .138.112.25.25.25h1a.25.25 0 0 0 .25-.25V13h.5v1.25c0 .138.112.25.25.25h1a.25.25 0 0 0 .25-.25V13h.084c1.992 0 3.416-1.033 3.416-2.82 0-1.502-1.007-2.323-2.186-2.44v-.088c.97-.242 1.683-.974 1.683-2.19C11.997 3.93 10.847 3 9.092 3H9V1.75a.25.25 0 0 0-.25-.25h-1a.25.25 0 0 0-.25.25V3h-.573V1.75a.25.25 0 0 0-.25-.25h-1a.25.25 0 0 0-.25.25V3l-1.998.011a.25.25 0 0 0-.25.25v.989c0 .137.11.25.248.25l.755.005c.396.001.55.166.55.539v6.354c0 .373-.155.539-.551.538l-.755-.005a.25.25 0 0 0-.249.25v.989c0 .138.111.25.249.25L5.5 13zm1.427-8.513h1.719c.906 0 1.438.498 1.438 1.312 0 .871-.575 1.376-1.756 1.376h-1.4V4.487zm0 4.051h1.79c1.19 0 1.786.539 1.786 1.443 0 .919-.633 1.376-1.83 1.376H6.927V8.538z" fill="#FFFFFF"/>
</g>
</svg>
